# xmcd CD database file
#
# Track frame offsets:
#	150
#	23541
#	45254
#	61505
#	78969
#	94536
#	121132
#	139032
#	157602
#	171506
#	187000
#
# Disc length: 2767 seconds
#
# Revision: 0
# Processed by: cddbd v1.5.1PL0 Copyright (c) Steve Scherf et al.
# Submitted via: CDex 1.51
#
DISCID=730acd0b
DTITLE=Silvana Malta and Frans Bak - Bossa Nuts
DYEAR=2004
DGENRE=Jazz
TTITLE0=Fim De Nós Dois
TTITLE1=Agga
TTITLE2=Disse-Que-Disse
TTITLE3=Amor Sem Fim
TTITLE4=Brasileirice
TTITLE5=De Volta Ao Começo
TTITLE6=Sei Lá
TTITLE7=Eu Sou Mais Eu
TTITLE8=Amor De Gebriela
TTITLE9=Meu Caminhar
TTITLE10=Balada Triste
EXTD=YEAR: 2004
EXTT0=
EXTT1=
EXTT2=
EXTT3=
EXTT4=
EXTT5=
EXTT6=
EXTT7=
EXTT8=
EXTT9=
EXTT10=
PLAYORDER=
